<?xml version="1.0" encoding="utf-8"?>
<!-- Generator: Adobe Illustrator 28.2.0, SVG Export Plug-In . SVG Version: 6.00 Build 0)  -->
<svg version="1.1" xmlns="http://www.w3.org/2000/svg" xmlns:xlink="http://www.w3.org/1999/xlink" x="0px" y="0px"
	 viewBox="0 0 541 1000" style="enable-background:new 0 0 541 1000;" xml:space="preserve">
<style type="text/css">
	.st0{fill:#F2F2F2;}
	.st1{fill:#FFFFFF;}
	.st2{fill:#ACACAC;}
	.st3{fill:#E4E4E4;}
	.st4{opacity:0.17;}
	.st5{fill:#3F3D56;}
	.st6{fill:#F0F0F0;}
	.st7{fill:#2F2E41;}
	.st8{opacity:0.15;enable-background:new    ;}
	.st9{opacity:0.15;}
	.st10{font-family:'Montserrat-Medium';}
	.st11{font-size:12px;}
	.st12{fill:#CCCCCC;}
	.st13{fill:#E6E6E6;}
	.st14{opacity:0.8;fill:url(#SVGID_1_);enable-background:new    ;}
	.st15{opacity:0.8;fill:url(#SVGID_00000107551629545888390270000001931558978795051961_);enable-background:new    ;}
</style>
<g id="Layer_2">
	<rect x="0" class="st0" width="541" height="1000"/>
	<circle class="st1" cx="351.6" cy="78.2" r="3"/>
	<circle class="st1" cx="74.7" cy="66.7" r="3"/>
</g>
<g id="Layer_1">
	<path class="st2" d="M493.1,247H47.9c-8.6,0-15.6,7-15.6,15.6V673c0,8.6,7,15.6,15.6,15.6h445.2c8.6,0,15.6-7,15.6-15.6V262.6
		C508.7,254,501.7,247,493.1,247z"/>
	<path class="st1" d="M279.5,435.6c-4.3-7.2-9.5-14.8-17.5-17.1c-9.3-2.7-18.8,2.7-26.9,8c-24.2,15.9-47.5,33-69.9,51.5l0,0.3
		c17.4-1.2,34.8-2.4,52.1-3.6c12.6-0.9,25.5-1.9,36.6-7.8c4.2-2.3,8.3-5.3,13.1-5.5c5.9-0.3,11.1,3.9,15.2,8.2
		c24,25.6,31,64.7,57.9,87.2C323.2,514.8,302.9,474.3,279.5,435.6z"/>
	<path class="st3" d="M427.2,652.6c-2.7-3.4-3.7-4.1-6.4-7.5c-21.3-27.6-41.4-56.1-60.2-85.6c-12.8-20-24.9-40.4-36.4-61.2
		c-5.5-9.9-10.8-19.8-16-29.9c-4-7.8-7.9-15.6-11.8-23.5c-1.1-2.2-2.2-4.5-3.2-6.8c-2.5-5.3-4.9-10.7-7.6-15.9
		c-3-6-6.6-12.3-12.2-16.3c-2.5-1.9-5.5-3.1-8.6-3.3c-4.5-0.3-8.6,1.6-12.5,3.6c-28.5,15-55.1,33.3-79.2,54.6
		C149.2,482,127.6,506,109,532.2c-0.6,0.8-1.9,0-1.3-0.8c2.3-3.2,4.6-6.4,6.9-9.5c29.2-38.8,65-72.2,105.8-98.7
		c6.9-4.4,13.9-8.7,21-12.7c3.6-2,7.2-4,10.9-5.9c3.6-1.8,7.4-3.5,11.5-3.6c14-0.2,21.2,15.6,26.2,26.2c1.6,3.4,3.1,6.7,4.7,10
		c6,12.6,12.3,25.2,18.8,37.6c4,7.7,8.1,15.3,12.3,22.9c13,23.6,26.9,46.7,41.6,69.3c19.5,30,38.8,56.4,60.9,84.5
		C428.9,652.3,427.9,653.4,427.2,652.6z"/>
	<path class="st3" d="M172,453c-0.8-0.9-1.6-1.8-2.4-2.7c-6.4-7.1-13.4-14.2-22.2-18.2c-4.2-2-8.8-3.1-13.5-3.1
		c-4.8,0.1-9.6,1.2-14,3.1c-2.1,0.8-4.2,1.8-6.2,2.8c-2.3,1.2-4.6,2.4-6.9,3.7c-4.3,2.4-8.5,4.8-12.6,7.4
		c-8.3,5.1-16.3,10.6-24,16.5c-4,3.1-7.9,6.2-11.8,9.5c-3.6,3-7.1,6.1-10.5,9.3c-0.7,0.7-1.8-0.4-1.1-1.1c0.9-0.8,1.8-1.7,2.7-2.5
		c2.6-2.3,5.2-4.6,7.9-6.9c4.9-4.1,9.9-8.1,15-11.8c8-5.9,16.2-11.4,24.7-16.5c4.2-2.5,8.6-5,12.9-7.3c1.3-0.7,2.7-1.4,4-2
		c3.1-1.5,6.2-2.8,9.5-3.9c4.6-1.5,9.5-2,14.4-1.4c4.7,0.7,9.2,2.2,13.3,4.6c8.7,4.9,15.4,12.4,22,19.7
		C173.7,452.7,172.6,453.8,172,453z"/>
	<path class="st3" d="M349.9,526.8l20.8-7.6l10.3-3.8c3.3-1.3,6.7-2.5,10.2-3.5c3-0.9,6.2-0.8,9.2,0.1c2.7,1,5.1,2.5,7.2,4.5
		c2.1,2,4.1,4.1,5.9,6.3c2.2,2.7,4.5,5.4,6.7,8.2c9.2,11.2,18.3,22.5,27.4,33.9c9.1,11.3,18.1,22.7,27,34.2
		c9,11.5,17.9,23,26.7,34.5c1.1,1.4,2.2,2.8,3.2,4.2c0.6,0.8,1.9,0,1.3-0.8c-8.9-11.7-17.9-23.3-26.9-34.9
		c-9.1-11.6-18.2-23.2-27.4-34.7c-9.2-11.5-18.4-23-27.7-34.4c-2.3-2.8-4.6-5.7-7-8.5c-2-2.4-3.9-4.8-6.1-7c-4-4.1-8.9-7.7-14.8-7.8
		c-3.5-0.1-6.8,1-10.1,2.2c-3.5,1.3-7,2.5-10.4,3.8l-21,7.7l-5.2,1.9C348.6,525.7,349,527.2,349.9,526.8L349.9,526.8z"/>
	<path class="st1" d="M144.6,441c-10.9-5.4-23.8-4.4-33.8,2.4c18.5,3.2,36.9,7.5,54.9,12.8C158.2,451.9,152.3,445,144.6,441z"/>
	<path class="st0" d="M110.6,443.4l-2,1.7c0.7-0.6,1.4-1.1,2.1-1.6C110.7,443.4,110.7,443.4,110.6,443.4z"/>
	<path class="st1" d="M406.9,526.9c-2-2.5-4.3-5.1-7.3-6.1l-2.9,0.1c21.8,38.5,51.2,72.1,86.4,98.8
		C457.8,588.8,432.3,557.8,406.9,526.9z"/>
	<g class="st4">
		<path class="st1" d="M462.8,384.6c5.8-2.5-5.9-4-19.2-4.5c-13.3-0.5-29.3-0.5-37.8-1.8c-8.2-1.3-7.6-3.7-8.3-5.8
			c-0.7-2.1-3.8-4.3-16.6-4.8c-16-0.6-42.3,1.7-54.3,0.3c-11.2-1.3-4.6-5.3-20.9-5.4c-9.4-0.1-21.4,1.2-31.8,1.5
			c-7.4,0.3-14.8-0.1-22.1-1.2c-5.1-0.8-8.6-1.9-14.3-2.6c-15-1.9-44.3-1.3-70.5,1.2c-26.2,2.5-48.6,6.5-61.3,10.5
			c-12.7,4-16.2,8-13.2,11.3c1.9,2.1,6.7,4.1,18.4,5c21.9,1.6,60.8-1.2,83.4,0.3c12.6,0.8,18.2,2.8,29.2,3.9
			c11.9,1.2,29.2,1.3,46.3,1.2c35.5-0.1,72-0.4,109.2-1.1c15.5-0.3,31.8-0.6,48.3-2s33.4-3.9,36.9-6.3L462.8,384.6z"/>
	</g>
	<circle class="st1" cx="217" cy="332.4" r="3"/>
	<circle class="st1" cx="290.2" cy="300" r="1.8"/>
	<circle class="st1" cx="191.2" cy="411" r="1.8"/>
	<circle class="st1" cx="397.2" cy="327.4" r="1.8"/>
	<circle class="st1" cx="278.2" cy="378.4" r="1.8"/>
	<circle class="st1" cx="327.2" cy="346.4" r="1.8"/>
	<circle class="st1" cx="417.9" cy="442.4" r="1.8"/>
	<circle class="st1" cx="73.9" cy="427.4" r="1.8"/>
	<path class="st5" d="M508.7,638.1V673c0,8.6-7,15.6-15.6,15.6H47.9c-8.6,0-15.6-7-15.6-15.6v-43.6c22.9-5.6,46.4-8.1,70-7.5
		c56.9,1.2,112.5,16.4,168.8,24.3c66.4,9.2,133.8,8.3,199.9-2.8C483.5,641.4,496.1,638.9,508.7,638.1z"/>
	<path class="st5" d="M357.7,479.1c-2.3-4.2-2.6-9.7,0.2-13.6c1.4,5,4.5,9.4,8.8,12.3c1.7,1.1,3.6,2.2,4.2,4.1
		c0.3,1.2,0.1,2.5-0.5,3.6c-0.6,1.1-1.4,2.1-2.3,3l-0.1,0.3C363.9,486.4,360,483.3,357.7,479.1z"/>
	<path class="st5" d="M211.7,591.1c-2.3-4.2-2.6-9.7,0.2-13.6c1.4,5,4.5,9.4,8.8,12.3c1.7,1.1,3.6,2.2,4.2,4.1
		c0.3,1.2,0.1,2.5-0.5,3.6c-0.6,1.1-1.4,2.1-2.3,3l-0.1,0.3C217.9,598.4,214,595.3,211.7,591.1z"/>
	<path class="st5" d="M391.7,568.1c-2.3-4.2-2.6-9.7,0.2-13.6c1.4,5,4.5,9.4,8.8,12.3c1.7,1.1,3.6,2.2,4.2,4.1
		c0.3,1.2,0.1,2.5-0.5,3.6c-0.6,1.1-1.4,2.1-2.3,3l-0.1,0.3C397.9,575.4,394,572.3,391.7,568.1z"/>
	<path class="st1" d="M123.1,325.3c-17.1,0-31-13.9-31-31c0-17.1,13.9-31,31-31c17.1,0,31,13.9,31,31
		C154.1,311.4,140.2,325.3,123.1,325.3z"/>
	<path class="st6" d="M216.6,292.7c-8.1-8.5-17.5-16.2-28.6-20.3c-3.1-1.1-6.3-1.9-9.6-2.4c0,0-0.1,0-0.1,0c-0.1,0-0.1,0-0.2,0
		c-4.6-0.6-9.2-0.3-13.7,0.8c-2.2,0.5-4.3,1.3-6.4,2.2c-2.1,1-4.1,2.1-6,3.4c-4.1,2.4-8.5,4.1-13.2,4.9c-2.3,0.4-4.7,0.7-7.1,0.7
		c-2-0.1-4,0.2-6,0.9c-4.2,1.6-7.5,5.1-8.7,9.4c-0.1,0.4,0.1,0.8,0.4,1c0.5,0.4,1,0.8,1.6,1.1c0.5,0.2,1,0.4,1.6,0.4
		c0.9,0.2,1.8,0.4,2.7,0.5c3.3,0.6,6.5,1.2,9.8,1.7c6.7,1,13.3,1.7,20.1,2.1c13.5,0.8,27,0.4,40.4-1.2c7.5-0.9,15-2.2,22.4-3.9
		c0.5-0.1,0.8-0.6,0.6-1.1C216.7,292.9,216.7,292.8,216.6,292.7z"/>
	<path class="st6" d="M124.6,313.1c-3.1-1.1-6.3-1.9-9.6-2.4c0,0-0.1,0-0.1,0c-0.1,0-0.1,0-0.2,0c-4.6-0.6-9.2-0.3-13.7,0.8
		c-2.2,0.5-4.3,1.3-6.4,2.2c-2.1,1-4.1,2.1-6,3.4c-4.1,2.4-8.5,4.1-13.2,4.9c-2.3,0.4-4.7,0.7-7.1,0.7c-2-0.1-4,0.2-6,0.9
		c-4.2,1.6-7.5,5.1-8.7,9.4c-0.1,0.4,0.1,0.8,0.4,1c0.5,0.4,1,0.8,1.6,1.1c0.5,0.2,1,0.4,1.6,0.4c0.9,0.2,1.8,0.4,2.7,0.5
		c3.3,0.6,6.5,1.2,9.8,1.7c6.7,1,13.3,1.7,20.1,2.1c13.5,0.8,27,0.4,40.4-1.2c7.5-0.9,15-2.2,22.4-3.9c0.5-0.1,0.8-0.6,0.6-1.1
		c0-0.1-0.1-0.3-0.2-0.4C145.1,324.9,135.7,317.2,124.6,313.1z"/>
	<polygon class="st7" points="107.4,592 124.6,579 133,587.4 104.9,606.5 	"/>
	<path class="st7" d="M91.3,628H32.5l2.1-6.7l0,0c12.8-4.6,5.6-14.6,17.8-20.7c29.8-14.9,41.3-59.3,36.9-76.8l19.5-0.8
		C108.8,523,135.7,599.5,91.3,628z"/>
	<path class="st5" d="M141.6,596.6c-3.6,3.2-9,3.3-12.8,0.2l0,0l0,0c0-0.8-0.1-1.6-0.4-2.4c0,0.6-0.1,1.1-0.2,1.7l0,0.2l-0.1-0.1
		c-0.1-0.1-0.2-0.2-0.3-0.4c-0.6-0.7-1.1-1.5-1.5-2.3c-1.9-3.9-4.7-7.4-8.1-10.1c-0.6-0.5-1.2-1-1.7-1.6c-5.1-5.8-4.5-14.6,1.3-19.7
		c4.5-4,11.1-4.6,16.3-1.6l0.1,0.1l0,0.1c-0.3,0.7-0.8,1.3-1.3,1.9c0.7-0.4,1.4-0.9,2-1.4l0.1-0.1l0.1,0c0.9,0.7,1.8,1.4,2.6,2.3
		l0.1,0.1c1.2,1.3,2.8,2.1,4.6,2.1c5.5,0.1,9.8,4.6,9.7,10.1c0,0.5-0.1,1-0.1,1.5l0,0.1l-0.1,0c-1.1,0.4-2.3,0.5-3.5,0.4
		c1,0.4,2,0.7,3.1,0.8l0.1,0l0,0.1c-0.6,1.7-1.5,3.1-2.9,4.3l0,0l0,0c-2,1.7-3.2,4.1-3.4,6.7C144.8,592.3,143.6,594.8,141.6,596.6z"
		/>
	<path class="st8" d="M143.4,593.4c0,0.4-0.1,0.7-0.1,1.1c1-1.5,1.5-3.2,1.6-5c0-0.3,0-0.5,0.1-0.8
		C144,590.1,143.5,591.7,143.4,593.4z"/>
	<path class="st8" d="M146.5,581.4c0.8,0.3,1.6,0.6,2.5,0.7c0.3-0.3,0.6-0.7,0.9-1.1C148.8,581.3,147.6,581.5,146.5,581.4z"/>
	<path class="st8" d="M150.1,578.1c0.1,0.9,0.1,1.7-0.1,2.6c0.5-0.7,0.8-1.5,1.1-2.3l0-0.1l-0.1,0
		C150.7,578.2,150.4,578.2,150.1,578.1z"/>
	<path class="st8" d="M149.2,568.7c-1.8-2.1-4.5-3.3-7.3-3.4c-1.8,0-3.4-0.8-4.6-2.1l-0.1-0.1c-0.8-0.9-1.6-1.6-2.6-2.3l-0.1,0
		l-0.1,0.1c-0.6,0.6-1.3,1.1-2,1.4c0.5-0.6,1-1.2,1.3-1.9l0-0.1l-0.1-0.1c-6.6-3.9-15.2-1.7-19.1,5c-0.7,1.3-1.3,2.6-1.6,4
		c3.8-6.7,12.3-9,19-5.2c0,0,0.1,0.1,0.1,0.1l0.1,0.1l0,0.1c-0.3,0.7-0.8,1.3-1.3,1.9c0.7-0.4,1.4-0.9,2-1.4l0.1-0.1l0.1,0
		c0.9,0.7,1.8,1.4,2.6,2.3l0.1,0.1c1.2,1.3,2.8,2.1,4.6,2.1c4.7,0.1,8.7,3.5,9.6,8.1c0.5-0.1,1-0.2,1.4-0.3l0.1,0l0-0.1
		C152,574,151.2,571,149.2,568.7z"/>
	<path class="st5" d="M170,528c0,15.6-11.3,28.8-26.6,31.4l-0.2,0l-0.1-0.1c-2-1.7-4.3-3.1-6.7-4.2c1.3,1.2,2.5,2.6,3.5,4.2l0.3,0.5
		l-0.6,0c-0.5,0-1.1,0-1.6,0c-3,0-5.9-0.4-8.8-1.2c-13.5-3.7-27.7-4.4-41.5-1.9c-2.5,0.4-5,0.6-7.5,0.6c-24.8,0-44.9-20.1-44.9-44.9
		c0-19.4,12.4-36.5,30.8-42.6l0.3-0.1l0.1,0.3c1,2.3,1.6,4.7,1.8,7.1c0.6-2.6,0.9-5.2,0.8-7.9l0-0.3l0.3-0.1
		c3.6-0.9,7.2-1.3,10.9-1.3l0.4,0c5.7,0,11.1-2.4,15-6.6c11.8-13,32-14,45-2.1c1.2,1.1,2.4,2.3,3.4,3.6l0.1,0.2l-0.1,0.2
		c-1.4,3.5-3.6,6.7-6.3,9.3c3.1-1.5,5.9-3.4,8.4-5.8l0.3-0.3l0.2,0.4c2.8,4.9,4.3,10.4,4.3,16l0,0.2c0,0.1,0,0.1,0,0.2
		c-0.1,8.4,3.2,16.5,9.2,22.4C166.5,511.1,170,519.4,170,528z"/>
	<g class="st9">
		<path d="M131.1,452.8c-1.1,1.8-2.4,3.5-4,4.9c2.2-1.1,4.3-2.4,6.3-3.9C132.6,453.4,131.8,453.1,131.1,452.8z"/>
		<path d="M149.5,490.8c1.7,1.7,3.3,3.6,4.6,5.6c-2-4.3-3-9-3-13.7c0-0.1,0-0.1,0-0.2l0-0.2c0-5.6-1.5-11.2-4.3-16l-0.2-0.4
			l-0.3,0.3c-1.8,1.7-3.7,3.2-5.8,4.4C140.9,478.2,144.1,485.4,149.5,490.8z"/>
		<path d="M140.4,468l0,0.2c0,0.1,0,0.1,0,0.2c0,0.3,0,0.6,0,0.9c1.5-2,2.8-4.2,3.8-6.5l0.1-0.2l-0.1-0.2c-1.7-2.1-3.6-4-5.8-5.6
			C139.7,460.4,140.4,464.2,140.4,468z"/>
		<path d="M160.3,505.1c-1.5-1.5-2.9-3.1-4.1-4.9c7.5,15.9,0.6,34.8-15.3,42.3c-2.6,1.2-5.4,2.1-8.3,2.6l-0.2,0l-0.1-0.1
			c-2-1.7-4.3-3.1-6.7-4.2c1.3,1.2,2.5,2.6,3.5,4.2l0.3,0.5l-0.6,0c-0.5,0-1.1,0-1.6,0c-3,0-5.9-0.4-8.8-1.2
			c-13.5-3.7-27.7-4.4-41.5-1.9c-2.5,0.4-5,0.6-7.5,0.6c-11,0-21.6-4-29.8-11.4c7.4,15.7,23.2,25.7,40.6,25.7c2.5,0,5-0.2,7.5-0.6
			c13.8-2.5,28-1.8,41.5,1.9c2.9,0.8,5.8,1.2,8.8,1.2c0.5,0,1,0,1.6,0l0.6,0l-0.3-0.5c-1-1.5-2.2-2.9-3.5-4.2
			c2.4,1.1,4.6,2.5,6.7,4.2l0.1,0.1l0.2,0c17.3-2.9,29.1-19.3,26.2-36.6C168.5,516.1,165.2,509.9,160.3,505.1L160.3,505.1z"/>
	</g>
	<text transform="matrix(1 0 0 1 32.26 712.6396)" class="st10 st11">Only limited to 4 photos currently, more to be allowed in future fix </text>
	<text transform="matrix(1 0 0 1 32.2603 735.4205)"><tspan x="0" y="0" class="st10 st11">Recommended “Press the right/ left ends of the loaded images to make sure that all</tspan><tspan x="0" y="14.4" class="st10 st11">have been loaded” </tspan></text>
	<path class="st12" d="M371,140.5c-50.6,0-90.2-9.2-90.2-20.9c0-7,14-13.3,38.5-17.2c0.4-0.1,0.7,0.2,0.8,0.6
		c0.1,0.4-0.2,0.7-0.6,0.8c0,0,0,0,0,0c-23.1,3.7-37.4,9.7-37.4,15.8c0,10.6,40.7,19.5,88.8,19.5s88.8-8.9,88.8-19.5
		c0-6.1-14.4-12.2-37.6-15.9c-0.4-0.1-0.6-0.4-0.6-0.8c0.1-0.4,0.4-0.6,0.8-0.6c24.6,3.9,38.8,10.2,38.8,17.2
		C461.2,131.3,421.6,140.5,371,140.5z"/>
	<path class="st13" d="M326.3,144.4c14.4,24.7,46.2,33,70.9,18.6c7.8-4.5,14.2-11,18.7-18.8C386.1,145.9,356.1,146,326.3,144.4z"/>
	<path class="st13" d="M420.9,129.8c7.8-27.5-8.1-56.2-35.6-64c-27.5-7.8-56.2,8.1-64,35.6c-2.7,9.5-2.6,19.5,0.2,29
		C354.4,134.5,387.9,134.3,420.9,129.8z"/>
	<circle class="st1" cx="381.8" cy="90.7" r="6.1"/>
	<ellipse transform="matrix(0.1602 -0.9871 0.9871 0.1602 156.3179 498.3594)" class="st1" cx="371" cy="157.3" rx="6.1" ry="6.1"/>
	<circle class="st1" cx="351.5" cy="111.5" r="10.1"/>
	
		<linearGradient id="SVGID_1_" gradientUnits="userSpaceOnUse" x1="369.0345" y1="792.0283" x2="455.8445" y2="792.0283" gradientTransform="matrix(1 0 0 -1 -223 949.18)">
		<stop  offset="0" style="stop-color:#FFFFFF"/>
		<stop  offset="1" style="stop-color:#FFFFFF;stop-opacity:0.3"/>
	</linearGradient>
	<path class="st14" d="M148,207.6l33-38.6l33-38.6l18.6-21.8c1-1.2-0.6-3.1-1.6-1.9l-33,38.6l-33,38.6l-18.6,21.8
		C145.3,206.9,146.9,208.8,148,207.6L148,207.6z"/>
	
		<linearGradient id="SVGID_00000001657778017584223910000007728416323829261210_" gradientUnits="userSpaceOnUse" x1="541.2072" y1="548.1167" x2="628.0172" y2="548.1167" gradientTransform="matrix(1 0 0 -1 -223 949.18)">
		<stop  offset="0" style="stop-color:#FFFFFF"/>
		<stop  offset="1" style="stop-color:#FFFFFF;stop-opacity:0.3"/>
	</linearGradient>
	<path style="opacity:0.8;fill:url(#SVGID_00000001657778017584223910000007728416323829261210_);enable-background:new    ;" d="
		M320.1,451.5l33-38.6l33-38.6l18.6-21.8c1-1.2-0.6-3.1-1.6-1.9l-33,38.6l-33,38.6l-18.6,21.8C317.5,450.8,319.1,452.7,320.1,451.5
		L320.1,451.5z"/>
	<polygon class="st1" points="461.2,217.6 459.3,217.8 458.9,219.6 458.2,217.9 456.3,218 457.7,216.8 457,215 458.6,216 460,214.8 
		459.6,216.6 	"/>
</g>
</svg>
