<svg width="36" height="37" viewBox="0 0 36 37" fill="white" xmlns="http://www.w3.org/2000/svg">
<path fill-rule="evenodd" clip-rule="evenodd" d="M14.5496 2.03552C10.7109 2.03552 7.88732 2.16347 5.96051 2.30109C3.50744 2.47629 1.61557 4.36816 1.44037 6.82124C1.30275 8.74803 1.1748 11.5716 1.1748 15.4103C1.1748 19.249 1.30275 22.0726 1.44037 23.9994C1.61097 26.3881 3.40921 28.2445 5.76834 28.5022C5.68938 26.7844 5.63307 24.6608 5.63307 22.0977C5.63307 18.2096 5.76266 15.333 5.9043 13.3499C6.15849 9.79082 8.9301 7.01921 12.4891 6.76501C14.4722 6.62337 17.3489 6.49379 21.237 6.49379C23.8001 6.49379 25.9237 6.5501 27.6415 6.62906C27.3838 4.26993 25.5273 2.47169 23.1387 2.30109C21.2119 2.16347 18.3883 2.03552 14.5496 2.03552ZM21.237 8.72292C17.3983 8.72292 14.5747 8.85087 12.6479 8.98848C10.1948 9.16369 8.30298 11.0556 8.12777 13.5086C7.99015 15.4354 7.8622 18.259 7.8622 22.0977C7.8622 25.9364 7.99015 28.76 8.12777 30.6868C8.30298 33.1399 10.1948 35.0317 12.6479 35.2069C14.5747 35.3446 17.3983 35.4725 21.237 35.4725C25.0757 35.4725 27.8993 35.3446 29.8261 35.2069C32.2792 35.0317 34.171 33.1399 34.3462 30.6868C34.4838 28.76 34.6118 25.9364 34.6118 22.0977C34.6118 18.259 34.4838 15.4354 34.3462 13.5086C34.171 11.0556 32.2792 9.16369 29.8261 8.98848C27.8993 8.85087 25.0757 8.72292 21.237 8.72292ZM24.2093 16.1534C24.2093 14.5119 25.54 13.1812 27.1815 13.1812C28.823 13.1812 30.1537 14.5119 30.1537 16.1534C30.1537 17.7948 28.823 19.1255 27.1815 19.1255C25.54 19.1255 24.2093 17.7948 24.2093 16.1534ZM32.3209 26.474C31.2995 25.5474 30.5035 24.8661 29.8968 24.3698C28.7871 23.4622 27.2978 23.3185 26.0802 24.1306C25.2898 24.6578 24.2282 25.4419 22.8637 26.5987C20.7895 24.6241 19.3419 23.3633 18.3752 22.5727C17.2655 21.665 15.7761 21.5213 14.5585 22.3335C13.5492 23.0066 12.0971 24.0991 10.1363 25.8526C10.1848 27.7933 10.2666 29.3417 10.3513 30.528C10.4475 31.8751 11.4597 32.8872 12.8069 32.9835C14.6773 33.1171 17.4478 33.2434 21.2371 33.2434C25.0264 33.2434 27.7969 33.1171 29.6674 32.9835C31.0146 32.8872 32.0267 31.8751 32.1229 30.528C32.1984 29.4711 32.2715 28.1269 32.3209 26.474Z" fill="white"/>
</svg>
